<svg xmlns="http://www.w3.org/2000/svg" viewBox="0 0 1200 610" width="1200" height="610">
  <defs>
    <linearGradient id="bgGrad" x1="0%" y1="0%" x2="100%" y2="100%">
      <stop offset="0%" style="stop-color:#0a0a1f;stop-opacity:1" />
      <stop offset="100%" style="stop-color:#1a1a3e;stop-opacity:1" />
    </linearGradient>

    <linearGradient id="titleGrad" x1="0%" y1="0%" x2="100%" y2="0%">
      <stop offset="0%" style="stop-color:#00d4ff;stop-opacity:1">
        <animate attributeName="stop-color" values="#00d4ff;#7b2ff7;#f107a3;#00d4ff" dur="6s" repeatCount="indefinite"/>
      </stop>
      <stop offset="50%" style="stop-color:#7b2ff7;stop-opacity:1">
        <animate attributeName="stop-color" values="#7b2ff7;#f107a3;#00d4ff;#7b2ff7" dur="6s" repeatCount="indefinite"/>
      </stop>
      <stop offset="100%" style="stop-color:#f107a3;stop-opacity:1">
        <animate attributeName="stop-color" values="#f107a3;#00d4ff;#7b2ff7;#f107a3" dur="6s" repeatCount="indefinite"/>
      </stop>
    </linearGradient>

    <filter id="strongGlow">
      <feGaussianBlur stdDeviation="5" result="coloredBlur"/>
      <feMerge>
        <feMergeNode in="coloredBlur"/>
        <feMergeNode in="coloredBlur"/>
        <feMergeNode in="SourceGraphic"/>
      </feMerge>
    </filter>
  </defs>

  <style>
    @import url('https://fonts.googleapis.com/css2?family=Orbitron:wght@400;700;900&amp;display=swap');

    * {
      font-family: 'Orbitron', 'Courier New', monospace;
    }

    /* Header Styles */
    .main-title {
      font-size: 64px;
      font-weight: 900;
      fill: url(#titleGrad);
      filter: url(#strongGlow);
      text-anchor: middle;
    }

    .subtitle {
      font-size: 24px;
      font-weight: 700;
      fill: #00d4ff;
      text-anchor: middle;
      opacity: 0;
      animation: fadeInUp 1s ease-out 0.5s forwards;
    }

    .tagline {
      font-size: 16px;
      fill: #a0aec0;
      text-anchor: middle;
      opacity: 0;
      animation: fadeInUp 1s ease-out 1s forwards;
    }

    /* Stats Styles */
    .stat-box {
      opacity: 0;
      animation: slideIn 0.8s ease-out forwards;
    }

    .stat-value {
      font-size: 36px;
      font-weight: 700;
      fill: #00d4ff;
    }

    .stat-label {
      font-size: 13px;
      fill: #8b92a8;
      text-transform: uppercase;
      letter-spacing: 0.5px;
    }

    /* Contribution Grid Styles */
    .section-title {
      font-size: 14px;
      fill: #8b92a8;
      font-weight: 700;
      letter-spacing: 1.5px;
      text-transform: uppercase;
    }

    .grid-label {
      font-size: 11px;
      fill: #6b7280;
      font-weight: 600;
    }

    .contrib-cell {
      animation: popIn 0.3s ease-out forwards;
      opacity: 0;
    }

    .contrib-cell-pulse {
      animation: pulse 2s ease-in-out infinite;
    }

    /* Tech Badge Styles */
    .tech-badge {
      opacity: 0;
      animation: popInBadge 0.5s ease-out forwards;
    }

    .badge-text {
      font-size: 14px;
      font-weight: 700;
    }

    /* Particle Styles */
    .particle {
      animation: float 4s ease-in-out infinite;
    }

    .bg-particle {
      animation: floatSlow 8s ease-in-out infinite;
    }

    /* Keyframe Animations */
    @keyframes fadeInUp {
      from { opacity: 0; }
      to { opacity: 1; }
    }

    @keyframes slideIn {
      from { opacity: 0; }
      to { opacity: 1; }
    }

    @keyframes popIn {
      from { opacity: 0; }
      to { opacity: 1; }
    }

    @keyframes popInBadge {
      from { opacity: 0; }
      to { opacity: 1; }
    }

    @keyframes pulse {
      0%, 100% { opacity: 1; }
      50% { opacity: 0.6; }
    }

    @keyframes float {
      0%, 100% { opacity: 0.4; }
      50% { opacity: 0.8; }
    }

    @keyframes floatSlow {
      0% { transform: translate(0, 0); opacity: 0.2; }
      50% { transform: translate(30px, -40px); opacity: 0.5; }
      100% { transform: translate(0, 0); opacity: 0.2; }
    }
  </style>

  <!-- Background -->
  <rect width="1200" height="610" fill="url(#bgGrad)"/>

  <!-- Animated Background Particles -->
  <g id="bg-particles" opacity="0.6">
    <circle class="bg-particle" cx="100" cy="100" r="4" fill="#00d4ff" style="animation-delay: 0s; animation-duration: 10s"/>
    <circle class="bg-particle" cx="300" cy="200" r="3" fill="#7b2ff7" style="animation-delay: 1s; animation-duration: 12s"/>
    <circle class="bg-particle" cx="500" cy="150" r="5" fill="#f107a3" style="animation-delay: 2s; animation-duration: 9s"/>
    <circle class="bg-particle" cx="700" cy="250" r="4" fill="#00d4ff" style="animation-delay: 3s; animation-duration: 11s"/>
    <circle class="bg-particle" cx="900" cy="180" r="3" fill="#7b2ff7" style="animation-delay: 1.5s; animation-duration: 13s"/>
    <circle class="bg-particle" cx="1100" cy="280" r="4" fill="#f107a3" style="animation-delay: 2.5s; animation-duration: 10s"/>
    <circle class="bg-particle" cx="200" cy="400" r="3" fill="#00d4ff" style="animation-delay: 0.5s; animation-duration: 14s"/>
    <circle class="bg-particle" cx="400" cy="450" r="5" fill="#7b2ff7" style="animation-delay: 1.8s; animation-duration: 11s"/>
    <circle class="bg-particle" cx="600" cy="500" r="4" fill="#f107a3" style="animation-delay: 2.2s; animation-duration: 12s"/>
    <circle class="bg-particle" cx="800" cy="420" r="3" fill="#00d4ff" style="animation-delay: 0.8s; animation-duration: 13s"/>
    <circle class="bg-particle" cx="1000" cy="480" r="4" fill="#7b2ff7" style="animation-delay: 3.2s; animation-duration: 10s"/>
  </g>

  <!-- SECTION 1: HEADER (Y: 0-180) -->
  <g id="header-section">
    <!-- Decorative particles -->
    <circle class="particle" cx="100" cy="80" r="2" fill="#00d4ff" style="animation-delay: 0s"/>
    <circle class="particle" cx="1100" cy="120" r="3" fill="#7b2ff7" style="animation-delay: 1s"/>
    <circle class="particle" cx="200" cy="150" r="2" fill="#f107a3" style="animation-delay: 0.5s"/>

    <!-- Main title -->
    <text x="600" y="90" class="main-title">VINAY SINGH</text>

    <!-- Subtitle -->
    <text x="600" y="130" class="subtitle">🚀 Founder &amp; CEO, Ajna Inc</text>

    <!-- Tagline -->
    <text x="600" y="160" class="tagline">Building Blockchain &amp; Self-Sovereign Identity Solutions for the Decentralized Web</text>
  </g>

  <!-- SECTION 2: STATS (Y: 200-310) -->
  <g id="stats-section" transform="translate(300, 200)">
    <!-- Stat 1: Years -->
    <g class="stat-box" style="animation-delay: 0.1s">
      <rect x="0" y="0" width="180" height="90" rx="10" fill="#1a1a3e" stroke="#00d4ff" stroke-width="2" opacity="0.8"/>
      <text x="90" y="50" class="stat-value" text-anchor="middle">{{YEARS_CODING}}</text>
      <text x="90" y="72" class="stat-label" text-anchor="middle">Years Coding</text>
    </g>

    <!-- Stat 2: Repositories -->
    <g class="stat-box" style="animation-delay: 0.2s" transform="translate(210, 0)">
      <rect x="0" y="0" width="180" height="90" rx="10" fill="#1a1a3e" stroke="#00d4ff" stroke-width="2" opacity="0.8"/>
      <text x="90" y="50" class="stat-value" text-anchor="middle">{{REPOSITORIES}}</text>
      <text x="90" y="72" class="stat-label" text-anchor="middle">Repositories</text>
    </g>

    <!-- Stat 3: Commits -->
    <g class="stat-box" style="animation-delay: 0.3s" transform="translate(420, 0)">
      <rect x="0" y="0" width="180" height="90" rx="10" fill="#1a1a3e" stroke="#00d4ff" stroke-width="2" opacity="0.8"/>
      <text x="90" y="50" class="stat-value" text-anchor="middle">{{COMMITS}}</text>
      <text x="90" y="72" class="stat-label" text-anchor="middle">Commits</text>
    </g>
  </g>

  <!-- SECTION 3: CONTRIBUTIONS (Y: 330-510) -->
  <g id="contributions-section">
    <!-- Day labels -->
    <g transform="translate(206, 330)" class="grid-label">
      <text x="0" y="12">Mon</text>
      <text x="0" y="38">Wed</text>
      <text x="0" y="64">Fri</text>
    </g>

    <!-- Contribution grid: 52 weeks -->
    <g transform="translate(266, 330)">
      <rect class="contrib-cell contrib-cell-pulse" x="0" y="0" width="12" height="12" rx="2" fill="#39d353" style="animation-delay: 0.10s"/>
      <rect class="contrib-cell" x="0" y="15" width="12" height="12" rx="2" fill="#f107a3" style="animation-delay: 0.11s"/>
      <rect class="contrib-cell" x="0" y="30" width="12" height="12" rx="2" fill="#56003d" style="animation-delay: 0.12s" opacity="1.0"/>
      <rect class="contrib-cell contrib-cell-pulse" x="0" y="45" width="12" height="12" rx="2" fill="#00d4ff" style="animation-delay: 0.13s"/>
      <rect class="contrib-cell" x="0" y="60" width="12" height="12" rx="2" fill="#00d4ff" style="animation-delay: 0.14s"/>
      <rect class="contrib-cell" x="14" y="0" width="12" height="12" rx="2" fill="#3d0d56" style="animation-delay: 0.15s"/>
      <rect class="contrib-cell" x="14" y="15" width="12" height="12" rx="2" fill="#0e4429" style="animation-delay: 0.16s"/>
      <rect class="contrib-cell" x="14" y="30" width="12" height="12" rx="2" fill="#00d4ff" style="animation-delay: 0.17s" opacity="0.7"/>
      <rect class="contrib-cell contrib-cell-pulse" x="14" y="45" width="12" height="12" rx="2" fill="#26a641" style="animation-delay: 0.18s" opacity="0.8"/>
      <rect class="contrib-cell" x="14" y="60" width="12" height="12" rx="2" fill="#006d32" style="animation-delay: 0.19s" opacity="0.7"/>
      <rect class="contrib-cell" x="14" y="75" width="12" height="12" rx="2" fill="#26a641" style="animation-delay: 0.20s"/>
      <rect class="contrib-cell" x="28" y="0" width="12" height="12" rx="2" fill="#0d3d56" style="animation-delay: 0.21s"/>
      <rect class="contrib-cell" x="28" y="15" width="12" height="12" rx="2" fill="#006d32" style="animation-delay: 0.22s" opacity="0.8"/>
      <rect class="contrib-cell" x="42" y="0" width="12" height="12" rx="2" fill="#56003d" style="animation-delay: 0.23s" opacity="1.0"/>
      <rect class="contrib-cell" x="42" y="15" width="12" height="12" rx="2" fill="#f107a3" style="animation-delay: 0.24s"/>
      <rect class="contrib-cell" x="42" y="30" width="12" height="12" rx="2" fill="#00d4ff" style="animation-delay: 0.25s"/>
      <rect class="contrib-cell contrib-cell-pulse" x="42" y="45" width="12" height="12" rx="2" fill="#0e4429" style="animation-delay: 0.26s"/>
      <rect class="contrib-cell" x="56" y="0" width="12" height="12" rx="2" fill="#39d353" style="animation-delay: 0.27s" opacity="0.8"/>
      <rect class="contrib-cell contrib-cell-pulse" x="56" y="15" width="12" height="12" rx="2" fill="#56003d" style="animation-delay: 0.28s"/>
      <rect class="contrib-cell" x="56" y="30" width="12" height="12" rx="2" fill="#39d353" style="animation-delay: 0.29s" opacity="0.8"/>
      <rect class="contrib-cell" x="70" y="0" width="12" height="12" rx="2" fill="#7b2ff7" style="animation-delay: 0.30s"/>
      <rect class="contrib-cell" x="70" y="15" width="12" height="12" rx="2" fill="#00d4ff" style="animation-delay: 0.31s"/>
      <rect class="contrib-cell" x="70" y="30" width="12" height="12" rx="2" fill="#39d353" style="animation-delay: 0.32s"/>
      <rect class="contrib-cell" x="70" y="45" width="12" height="12" rx="2" fill="#7b2ff7" style="animation-delay: 0.33s"/>
      <rect class="contrib-cell" x="70" y="60" width="12" height="12" rx="2" fill="#3d0d56" style="animation-delay: 0.34s"/>
      <rect class="contrib-cell" x="70" y="75" width="12" height="12" rx="2" fill="#1a1a3e" style="animation-delay: 0.35s"/>
      <rect class="contrib-cell" x="84" y="0" width="12" height="12" rx="2" fill="#0e4429" style="animation-delay: 0.36s"/>
      <rect class="contrib-cell" x="84" y="15" width="12" height="12" rx="2" fill="#0d3d56" style="animation-delay: 0.37s"/>
      <rect class="contrib-cell" x="84" y="30" width="12" height="12" rx="2" fill="#1a1a3e" style="animation-delay: 0.38s"/>
      <rect class="contrib-cell" x="98" y="0" width="12" height="12" rx="2" fill="#26a641" style="animation-delay: 0.39s" opacity="0.8"/>
      <rect class="contrib-cell" x="98" y="15" width="12" height="12" rx="2" fill="#f107a3" style="animation-delay: 0.40s"/>
      <rect class="contrib-cell" x="112" y="0" width="12" height="12" rx="2" fill="#f107a3" style="animation-delay: 0.41s"/>
      <rect class="contrib-cell" x="112" y="15" width="12" height="12" rx="2" fill="#39d353" style="animation-delay: 0.42s"/>
      <rect class="contrib-cell" x="112" y="30" width="12" height="12" rx="2" fill="#26a641" style="animation-delay: 0.43s"/>
      <rect class="contrib-cell" x="126" y="0" width="12" height="12" rx="2" fill="#26a641" style="animation-delay: 0.44s"/>
      <rect class="contrib-cell" x="126" y="15" width="12" height="12" rx="2" fill="#0e4429" style="animation-delay: 0.45s" opacity="0.6"/>
      <rect class="contrib-cell" x="126" y="30" width="12" height="12" rx="2" fill="#7b2ff7" style="animation-delay: 0.46s"/>
      <rect class="contrib-cell" x="126" y="45" width="12" height="12" rx="2" fill="#0d3d56" style="animation-delay: 0.47s" opacity="0.6"/>
      <rect class="contrib-cell" x="126" y="60" width="12" height="12" rx="2" fill="#56003d" style="animation-delay: 0.48s"/>
      <rect class="contrib-cell" x="126" y="75" width="12" height="12" rx="2" fill="#1a1a3e" style="animation-delay: 0.49s" opacity="0.9"/>
      <rect class="contrib-cell" x="140" y="0" width="12" height="12" rx="2" fill="#006d32" style="animation-delay: 0.50s"/>
      <rect class="contrib-cell" x="140" y="15" width="12" height="12" rx="2" fill="#26a641" style="animation-delay: 0.51s"/>
      <rect class="contrib-cell" x="140" y="30" width="12" height="12" rx="2" fill="#1a1a3e" style="animation-delay: 0.52s" opacity="0.6"/>
      <rect class="contrib-cell" x="140" y="45" width="12" height="12" rx="2" fill="#3d0d56" style="animation-delay: 0.53s"/>
      <rect class="contrib-cell" x="140" y="60" width="12" height="12" rx="2" fill="#0d3d56" style="animation-delay: 0.54s"/>
      <rect class="contrib-cell" x="154" y="0" width="12" height="12" rx="2" fill="#f107a3" style="animation-delay: 0.55s"/>
      <rect class="contrib-cell" x="154" y="15" width="12" height="12" rx="2" fill="#f107a3" style="animation-delay: 0.56s" opacity="0.7"/>
      <rect class="contrib-cell contrib-cell-pulse" x="154" y="30" width="12" height="12" rx="2" fill="#26a641" style="animation-delay: 0.57s"/>
      <rect class="contrib-cell" x="154" y="45" width="12" height="12" rx="2" fill="#f107a3" style="animation-delay: 0.58s"/>
      <rect class="contrib-cell" x="168" y="0" width="12" height="12" rx="2" fill="#26a641" style="animation-delay: 0.59s"/>
      <rect class="contrib-cell" x="168" y="15" width="12" height="12" rx="2" fill="#1a1a3e" style="animation-delay: 0.60s"/>
      <rect class="contrib-cell" x="182" y="0" width="12" height="12" rx="2" fill="#00d4ff" style="animation-delay: 0.61s"/>
      <rect class="contrib-cell contrib-cell-pulse" x="182" y="15" width="12" height="12" rx="2" fill="#f107a3" style="animation-delay: 0.62s" opacity="0.9"/>
      <rect class="contrib-cell" x="182" y="30" width="12" height="12" rx="2" fill="#3d0d56" style="animation-delay: 0.63s"/>
      <rect class="contrib-cell contrib-cell-pulse" x="196" y="0" width="12" height="12" rx="2" fill="#0e4429" style="animation-delay: 0.64s" opacity="0.8"/>
      <rect class="contrib-cell" x="196" y="15" width="12" height="12" rx="2" fill="#3d0d56" style="animation-delay: 0.65s"/>
      <rect class="contrib-cell" x="196" y="30" width="12" height="12" rx="2" fill="#26a641" style="animation-delay: 0.66s" opacity="0.7"/>
      <rect class="contrib-cell contrib-cell-pulse" x="196" y="45" width="12" height="12" rx="2" fill="#56003d" style="animation-delay: 0.67s"/>
      <rect class="contrib-cell" x="196" y="60" width="12" height="12" rx="2" fill="#1a1a3e" style="animation-delay: 0.68s"/>
      <rect class="contrib-cell" x="196" y="75" width="12" height="12" rx="2" fill="#26a641" style="animation-delay: 0.69s"/>
      <rect class="contrib-cell" x="210" y="0" width="12" height="12" rx="2" fill="#006d32" style="animation-delay: 0.70s"/>
      <rect class="contrib-cell" x="210" y="15" width="12" height="12" rx="2" fill="#1a1a3e" style="animation-delay: 0.71s"/>
      <rect class="contrib-cell contrib-cell-pulse" x="224" y="0" width="12" height="12" rx="2" fill="#56003d" style="animation-delay: 0.72s"/>
      <rect class="contrib-cell" x="224" y="15" width="12" height="12" rx="2" fill="#7b2ff7" style="animation-delay: 0.73s"/>
      <rect class="contrib-cell" x="224" y="30" width="12" height="12" rx="2" fill="#00d4ff" style="animation-delay: 0.74s"/>
      <rect class="contrib-cell" x="224" y="45" width="12" height="12" rx="2" fill="#0d3d56" style="animation-delay: 0.75s" opacity="0.9"/>
      <rect class="contrib-cell" x="224" y="60" width="12" height="12" rx="2" fill="#0e4429" style="animation-delay: 0.76s"/>
      <rect class="contrib-cell" x="238" y="0" width="12" height="12" rx="2" fill="#006d32" style="animation-delay: 0.77s" opacity="0.7"/>
      <rect class="contrib-cell" x="238" y="15" width="12" height="12" rx="2" fill="#26a641" style="animation-delay: 0.78s"/>
      <rect class="contrib-cell" x="238" y="30" width="12" height="12" rx="2" fill="#56003d" style="animation-delay: 0.79s" opacity="0.9"/>
      <rect class="contrib-cell" x="238" y="45" width="12" height="12" rx="2" fill="#1a1a3e" style="animation-delay: 0.80s"/>
      <rect class="contrib-cell" x="238" y="60" width="12" height="12" rx="2" fill="#00d4ff" style="animation-delay: 0.81s" opacity="0.9"/>
      <rect class="contrib-cell" x="238" y="75" width="12" height="12" rx="2" fill="#006d32" style="animation-delay: 0.82s"/>
      <rect class="contrib-cell" x="252" y="0" width="12" height="12" rx="2" fill="#1a1a3e" style="animation-delay: 0.83s"/>
      <rect class="contrib-cell" x="252" y="15" width="12" height="12" rx="2" fill="#56003d" style="animation-delay: 0.84s"/>
      <rect class="contrib-cell" x="266" y="0" width="12" height="12" rx="2" fill="#39d353" style="animation-delay: 0.85s"/>
      <rect class="contrib-cell" x="266" y="15" width="12" height="12" rx="2" fill="#0e4429" style="animation-delay: 0.86s"/>
      <rect class="contrib-cell" x="266" y="30" width="12" height="12" rx="2" fill="#26a641" style="animation-delay: 0.87s" opacity="0.7"/>
      <rect class="contrib-cell" x="266" y="45" width="12" height="12" rx="2" fill="#26a641" style="animation-delay: 0.88s" opacity="0.7"/>
      <rect class="contrib-cell contrib-cell-pulse" x="280" y="0" width="12" height="12" rx="2" fill="#56003d" style="animation-delay: 0.89s"/>
      <rect class="contrib-cell" x="280" y="15" width="12" height="12" rx="2" fill="#f107a3" style="animation-delay: 0.90s"/>
      <rect class="contrib-cell" x="294" y="0" width="12" height="12" rx="2" fill="#39d353" style="animation-delay: 0.91s"/>
      <rect class="contrib-cell" x="294" y="15" width="12" height="12" rx="2" fill="#1a1a3e" style="animation-delay: 0.92s"/>
      <rect class="contrib-cell" x="294" y="30" width="12" height="12" rx="2" fill="#0d3d56" style="animation-delay: 0.93s" opacity="0.9"/>
      <rect class="contrib-cell" x="308" y="0" width="12" height="12" rx="2" fill="#7b2ff7" style="animation-delay: 0.94s"/>
      <rect class="contrib-cell" x="308" y="15" width="12" height="12" rx="2" fill="#0d3d56" style="animation-delay: 0.95s"/>
      <rect class="contrib-cell" x="308" y="30" width="12" height="12" rx="2" fill="#f107a3" style="animation-delay: 0.96s" opacity="0.9"/>
      <rect class="contrib-cell" x="308" y="45" width="12" height="12" rx="2" fill="#f107a3" style="animation-delay: 0.97s"/>
      <rect class="contrib-cell" x="322" y="0" width="12" height="12" rx="2" fill="#56003d" style="animation-delay: 0.98s"/>
      <rect class="contrib-cell" x="322" y="15" width="12" height="12" rx="2" fill="#26a641" style="animation-delay: 0.99s"/>
      <rect class="contrib-cell" x="322" y="30" width="12" height="12" rx="2" fill="#0e4429" style="animation-delay: 1.00s"/>
      <rect class="contrib-cell" x="322" y="45" width="12" height="12" rx="2" fill="#f107a3" style="animation-delay: 1.01s"/>
      <rect class="contrib-cell" x="322" y="60" width="12" height="12" rx="2" fill="#006d32" style="animation-delay: 1.02s" opacity="0.8"/>
      <rect class="contrib-cell" x="336" y="0" width="12" height="12" rx="2" fill="#26a641" style="animation-delay: 1.03s"/>
      <rect class="contrib-cell" x="336" y="15" width="12" height="12" rx="2" fill="#56003d" style="animation-delay: 1.04s"/>
      <rect class="contrib-cell" x="336" y="30" width="12" height="12" rx="2" fill="#0e4429" style="animation-delay: 1.05s"/>
      <rect class="contrib-cell" x="336" y="45" width="12" height="12" rx="2" fill="#26a641" style="animation-delay: 1.06s"/>
      <rect class="contrib-cell" x="336" y="60" width="12" height="12" rx="2" fill="#006d32" style="animation-delay: 1.07s"/>
      <rect class="contrib-cell" x="350" y="0" width="12" height="12" rx="2" fill="#f107a3" style="animation-delay: 1.08s"/>
      <rect class="contrib-cell" x="350" y="15" width="12" height="12" rx="2" fill="#39d353" style="animation-delay: 1.09s"/>
      <rect class="contrib-cell contrib-cell-pulse" x="350" y="30" width="12" height="12" rx="2" fill="#1a1a3e" style="animation-delay: 1.10s"/>
      <rect class="contrib-cell" x="350" y="45" width="12" height="12" rx="2" fill="#00d4ff" style="animation-delay: 1.11s"/>
      <rect class="contrib-cell" x="350" y="60" width="12" height="12" rx="2" fill="#7b2ff7" style="animation-delay: 1.12s"/>
      <rect class="contrib-cell" x="350" y="75" width="12" height="12" rx="2" fill="#0e4429" style="animation-delay: 1.13s"/>
      <rect class="contrib-cell" x="364" y="0" width="12" height="12" rx="2" fill="#00d4ff" style="animation-delay: 1.14s"/>
      <rect class="contrib-cell" x="364" y="15" width="12" height="12" rx="2" fill="#1a1a3e" style="animation-delay: 1.15s" opacity="0.9"/>
      <rect class="contrib-cell" x="364" y="30" width="12" height="12" rx="2" fill="#1a1a3e" style="animation-delay: 1.16s"/>
      <rect class="contrib-cell" x="364" y="45" width="12" height="12" rx="2" fill="#3d0d56" style="animation-delay: 1.17s" opacity="0.9"/>
      <rect class="contrib-cell contrib-cell-pulse" x="364" y="60" width="12" height="12" rx="2" fill="#0e4429" style="animation-delay: 1.18s" opacity="0.8"/>
      <rect class="contrib-cell" x="364" y="75" width="12" height="12" rx="2" fill="#3d0d56" style="animation-delay: 1.19s"/>
      <rect class="contrib-cell" x="378" y="0" width="12" height="12" rx="2" fill="#00d4ff" style="animation-delay: 1.20s"/>
      <rect class="contrib-cell" x="378" y="15" width="12" height="12" rx="2" fill="#56003d" style="animation-delay: 1.21s"/>
      <rect class="contrib-cell" x="378" y="30" width="12" height="12" rx="2" fill="#26a641" style="animation-delay: 1.22s" opacity="0.8"/>
      <rect class="contrib-cell" x="392" y="0" width="12" height="12" rx="2" fill="#26a641" style="animation-delay: 1.23s" opacity="0.8"/>
      <rect class="contrib-cell" x="392" y="15" width="12" height="12" rx="2" fill="#1a1a3e" style="animation-delay: 1.24s"/>
      <rect class="contrib-cell" x="406" y="0" width="12" height="12" rx="2" fill="#00d4ff" style="animation-delay: 1.25s"/>
      <rect class="contrib-cell" x="406" y="15" width="12" height="12" rx="2" fill="#f107a3" style="animation-delay: 1.26s" opacity="0.9"/>
      <rect class="contrib-cell" x="406" y="30" width="12" height="12" rx="2" fill="#00d4ff" style="animation-delay: 1.27s"/>
      <rect class="contrib-cell" x="406" y="45" width="12" height="12" rx="2" fill="#f107a3" style="animation-delay: 1.28s"/>
      <rect class="contrib-cell" x="406" y="60" width="12" height="12" rx="2" fill="#39d353" style="animation-delay: 1.29s"/>
      <rect class="contrib-cell contrib-cell-pulse" x="420" y="0" width="12" height="12" rx="2" fill="#0d3d56" style="animation-delay: 1.30s"/>
      <rect class="contrib-cell" x="420" y="15" width="12" height="12" rx="2" fill="#26a641" style="animation-delay: 1.31s"/>
      <rect class="contrib-cell" x="420" y="30" width="12" height="12" rx="2" fill="#1a1a3e" style="animation-delay: 1.32s"/>
      <rect class="contrib-cell" x="434" y="0" width="12" height="12" rx="2" fill="#f107a3" style="animation-delay: 1.33s" opacity="0.8"/>
      <rect class="contrib-cell" x="434" y="15" width="12" height="12" rx="2" fill="#0d3d56" style="animation-delay: 1.34s"/>
      <rect class="contrib-cell" x="434" y="30" width="12" height="12" rx="2" fill="#7b2ff7" style="animation-delay: 1.35s"/>
      <rect class="contrib-cell" x="434" y="45" width="12" height="12" rx="2" fill="#26a641" style="animation-delay: 1.36s" opacity="0.7"/>
      <rect class="contrib-cell" x="434" y="60" width="12" height="12" rx="2" fill="#f107a3" style="animation-delay: 1.37s"/>
      <rect class="contrib-cell" x="448" y="0" width="12" height="12" rx="2" fill="#26a641" style="animation-delay: 1.38s"/>
      <rect class="contrib-cell" x="448" y="15" width="12" height="12" rx="2" fill="#1a1a3e" style="animation-delay: 1.39s"/>
      <rect class="contrib-cell" x="448" y="30" width="12" height="12" rx="2" fill="#39d353" style="animation-delay: 1.40s"/>
      <rect class="contrib-cell" x="448" y="45" width="12" height="12" rx="2" fill="#56003d" style="animation-delay: 1.41s" opacity="0.9"/>
      <rect class="contrib-cell" x="448" y="60" width="12" height="12" rx="2" fill="#f107a3" style="animation-delay: 1.42s" opacity="0.8"/>
      <rect class="contrib-cell" x="462" y="0" width="12" height="12" rx="2" fill="#3d0d56" style="animation-delay: 1.43s"/>
      <rect class="contrib-cell" x="462" y="15" width="12" height="12" rx="2" fill="#3d0d56" style="animation-delay: 1.44s"/>
      <rect class="contrib-cell" x="462" y="30" width="12" height="12" rx="2" fill="#1a1a3e" style="animation-delay: 1.45s"/>
      <rect class="contrib-cell" x="462" y="45" width="12" height="12" rx="2" fill="#3d0d56" style="animation-delay: 1.46s"/>
      <rect class="contrib-cell" x="462" y="60" width="12" height="12" rx="2" fill="#0d3d56" style="animation-delay: 1.47s"/>
      <rect class="contrib-cell" x="476" y="0" width="12" height="12" rx="2" fill="#006d32" style="animation-delay: 1.48s" opacity="0.8"/>
      <rect class="contrib-cell" x="476" y="15" width="12" height="12" rx="2" fill="#26a641" style="animation-delay: 1.49s"/>
      <rect class="contrib-cell" x="476" y="30" width="12" height="12" rx="2" fill="#006d32" style="animation-delay: 1.50s"/>
      <rect class="contrib-cell" x="490" y="0" width="12" height="12" rx="2" fill="#7b2ff7" style="animation-delay: 1.51s"/>
      <rect class="contrib-cell" x="490" y="15" width="12" height="12" rx="2" fill="#3d0d56" style="animation-delay: 1.52s" opacity="0.9"/>
      <rect class="contrib-cell" x="490" y="30" width="12" height="12" rx="2" fill="#1a1a3e" style="animation-delay: 1.53s" opacity="0.7"/>
      <rect class="contrib-cell" x="490" y="45" width="12" height="12" rx="2" fill="#26a641" style="animation-delay: 1.54s"/>
      <rect class="contrib-cell contrib-cell-pulse" x="490" y="60" width="12" height="12" rx="2" fill="#0e4429" style="animation-delay: 1.55s" opacity="0.8"/>
      <rect class="contrib-cell" x="490" y="75" width="12" height="12" rx="2" fill="#7b2ff7" style="animation-delay: 1.56s"/>
      <rect class="contrib-cell contrib-cell-pulse" x="504" y="0" width="12" height="12" rx="2" fill="#00d4ff" style="animation-delay: 1.57s"/>
      <rect class="contrib-cell" x="504" y="15" width="12" height="12" rx="2" fill="#39d353" style="animation-delay: 1.58s"/>
      <rect class="contrib-cell" x="518" y="0" width="12" height="12" rx="2" fill="#00d4ff" style="animation-delay: 1.59s"/>
      <rect class="contrib-cell" x="518" y="15" width="12" height="12" rx="2" fill="#1a1a3e" style="animation-delay: 1.60s"/>
      <rect class="contrib-cell" x="518" y="30" width="12" height="12" rx="2" fill="#0d3d56" style="animation-delay: 1.61s"/>
      <rect class="contrib-cell" x="518" y="45" width="12" height="12" rx="2" fill="#1a1a3e" style="animation-delay: 1.62s"/>
      <rect class="contrib-cell" x="532" y="0" width="12" height="12" rx="2" fill="#1a1a3e" style="animation-delay: 1.63s"/>
      <rect class="contrib-cell" x="532" y="15" width="12" height="12" rx="2" fill="#0e4429" style="animation-delay: 1.64s"/>
      <rect class="contrib-cell contrib-cell-pulse" x="532" y="30" width="12" height="12" rx="2" fill="#7b2ff7" style="animation-delay: 1.65s"/>
      <rect class="contrib-cell" x="546" y="0" width="12" height="12" rx="2" fill="#3d0d56" style="animation-delay: 1.66s"/>
      <rect class="contrib-cell" x="546" y="15" width="12" height="12" rx="2" fill="#f107a3" style="animation-delay: 1.67s" opacity="0.6"/>
      <rect class="contrib-cell" x="546" y="30" width="12" height="12" rx="2" fill="#1a1a3e" style="animation-delay: 1.68s" opacity="0.9"/>
      <rect class="contrib-cell" x="546" y="45" width="12" height="12" rx="2" fill="#0d3d56" style="animation-delay: 1.69s"/>
      <rect class="contrib-cell" x="546" y="60" width="12" height="12" rx="2" fill="#3d0d56" style="animation-delay: 1.70s"/>
      <rect class="contrib-cell" x="546" y="75" width="12" height="12" rx="2" fill="#1a1a3e" style="animation-delay: 1.71s"/>
      <rect class="contrib-cell" x="560" y="0" width="12" height="12" rx="2" fill="#f107a3" style="animation-delay: 1.72s" opacity="0.7"/>
      <rect class="contrib-cell" x="560" y="15" width="12" height="12" rx="2" fill="#39d353" style="animation-delay: 1.73s"/>
      <rect class="contrib-cell contrib-cell-pulse" x="560" y="30" width="12" height="12" rx="2" fill="#0d3d56" style="animation-delay: 1.74s" opacity="0.9"/>
      <rect class="contrib-cell" x="560" y="45" width="12" height="12" rx="2" fill="#39d353" style="animation-delay: 1.75s"/>
      <rect class="contrib-cell" x="560" y="60" width="12" height="12" rx="2" fill="#f107a3" style="animation-delay: 1.76s"/>
      <rect class="contrib-cell" x="560" y="75" width="12" height="12" rx="2" fill="#26a641" style="animation-delay: 1.77s" opacity="0.9"/>
      <rect class="contrib-cell" x="574" y="0" width="12" height="12" rx="2" fill="#006d32" style="animation-delay: 1.78s"/>
      <rect class="contrib-cell" x="574" y="15" width="12" height="12" rx="2" fill="#39d353" style="animation-delay: 1.79s" opacity="0.9"/>
      <rect class="contrib-cell" x="574" y="30" width="12" height="12" rx="2" fill="#0d3d56" style="animation-delay: 1.80s" opacity="0.8"/>
      <rect class="contrib-cell" x="574" y="45" width="12" height="12" rx="2" fill="#f107a3" style="animation-delay: 1.81s"/>
      <rect class="contrib-cell" x="574" y="60" width="12" height="12" rx="2" fill="#1a1a3e" style="animation-delay: 1.82s"/>
      <rect class="contrib-cell" x="588" y="0" width="12" height="12" rx="2" fill="#0e4429" style="animation-delay: 1.83s"/>
      <rect class="contrib-cell" x="588" y="15" width="12" height="12" rx="2" fill="#0e4429" style="animation-delay: 1.84s"/>
      <rect class="contrib-cell" x="588" y="30" width="12" height="12" rx="2" fill="#0e4429" style="animation-delay: 1.85s" opacity="0.9"/>
      <rect class="contrib-cell" x="588" y="45" width="12" height="12" rx="2" fill="#0e4429" style="animation-delay: 1.86s"/>
      <rect class="contrib-cell" x="588" y="60" width="12" height="12" rx="2" fill="#56003d" style="animation-delay: 1.87s"/>
      <rect class="contrib-cell" x="588" y="75" width="12" height="12" rx="2" fill="#00d4ff" style="animation-delay: 1.88s"/>
      <rect class="contrib-cell" x="602" y="0" width="12" height="12" rx="2" fill="#39d353" style="animation-delay: 1.89s"/>
      <rect class="contrib-cell" x="602" y="15" width="12" height="12" rx="2" fill="#56003d" style="animation-delay: 1.90s"/>
      <rect class="contrib-cell" x="602" y="30" width="12" height="12" rx="2" fill="#1a1a3e" style="animation-delay: 1.91s"/>
      <rect class="contrib-cell" x="602" y="45" width="12" height="12" rx="2" fill="#0d3d56" style="animation-delay: 1.92s"/>
      <rect class="contrib-cell contrib-cell-pulse" x="602" y="60" width="12" height="12" rx="2" fill="#00d4ff" style="animation-delay: 1.93s" opacity="0.8"/>
      <rect class="contrib-cell" x="616" y="0" width="12" height="12" rx="2" fill="#0d3d56" style="animation-delay: 1.94s" opacity="0.7"/>
      <rect class="contrib-cell" x="616" y="15" width="12" height="12" rx="2" fill="#00d4ff" style="animation-delay: 1.95s"/>
      <rect class="contrib-cell" x="616" y="30" width="12" height="12" rx="2" fill="#3d0d56" style="animation-delay: 1.96s"/>
      <rect class="contrib-cell" x="616" y="45" width="12" height="12" rx="2" fill="#f107a3" style="animation-delay: 1.97s"/>
      <rect class="contrib-cell" x="630" y="0" width="12" height="12" rx="2" fill="#00d4ff" style="animation-delay: 1.98s"/>
      <rect class="contrib-cell" x="630" y="15" width="12" height="12" rx="2" fill="#0e4429" style="animation-delay: 1.99s" opacity="0.8"/>
      <rect class="contrib-cell" x="630" y="30" width="12" height="12" rx="2" fill="#26a641" style="animation-delay: 2.00s"/>
      <rect class="contrib-cell" x="630" y="45" width="12" height="12" rx="2" fill="#00d4ff" style="animation-delay: 2.01s"/>
      <rect class="contrib-cell" x="644" y="0" width="12" height="12" rx="2" fill="#0d3d56" style="animation-delay: 2.02s"/>
      <rect class="contrib-cell" x="644" y="15" width="12" height="12" rx="2" fill="#0e4429" style="animation-delay: 2.03s" opacity="0.9"/>
      <rect class="contrib-cell" x="644" y="30" width="12" height="12" rx="2" fill="#7b2ff7" style="animation-delay: 2.04s"/>
      <rect class="contrib-cell" x="658" y="0" width="12" height="12" rx="2" fill="#0e4429" style="animation-delay: 2.05s"/>
      <rect class="contrib-cell" x="658" y="15" width="12" height="12" rx="2" fill="#39d353" style="animation-delay: 2.06s" opacity="0.7"/>
      <rect class="contrib-cell" x="658" y="30" width="12" height="12" rx="2" fill="#006d32" style="animation-delay: 2.07s" opacity="0.6"/>
      <rect class="contrib-cell" x="672" y="0" width="12" height="12" rx="2" fill="#f107a3" style="animation-delay: 2.08s"/>
      <rect class="contrib-cell" x="672" y="15" width="12" height="12" rx="2" fill="#39d353" style="animation-delay: 2.09s"/>
      <rect class="contrib-cell" x="672" y="30" width="12" height="12" rx="2" fill="#00d4ff" style="animation-delay: 2.10s" opacity="0.7"/>
      <rect class="contrib-cell" x="686" y="0" width="12" height="12" rx="2" fill="#00d4ff" style="animation-delay: 2.11s" opacity="0.9"/>
      <rect class="contrib-cell contrib-cell-pulse" x="686" y="15" width="12" height="12" rx="2" fill="#0e4429" style="animation-delay: 2.12s"/>
      <rect class="contrib-cell" x="700" y="0" width="12" height="12" rx="2" fill="#39d353" style="animation-delay: 2.13s"/>
      <rect class="contrib-cell" x="700" y="15" width="12" height="12" rx="2" fill="#f107a3" style="animation-delay: 2.14s"/>
      <rect class="contrib-cell" x="700" y="30" width="12" height="12" rx="2" fill="#26a641" style="animation-delay: 2.15s"/>
      <rect class="contrib-cell" x="714" y="0" width="12" height="12" rx="2" fill="#006d32" style="animation-delay: 2.16s"/>
      <rect class="contrib-cell" x="714" y="15" width="12" height="12" rx="2" fill="#006d32" style="animation-delay: 2.17s" opacity="0.9"/>
      <rect class="contrib-cell" x="714" y="30" width="12" height="12" rx="2" fill="#1a1a3e" style="animation-delay: 2.18s"/>
      <rect class="contrib-cell" x="714" y="45" width="12" height="12" rx="2" fill="#1a1a3e" style="animation-delay: 2.19s"/>
      <rect class="contrib-cell" x="714" y="60" width="12" height="12" rx="2" fill="#00d4ff" style="animation-delay: 2.20s" opacity="1.0"/>

    </g>

    <!-- Month labels -->
    <g transform="translate(266, 445)" class="grid-label">
      <text x="0" y="0">Jan</text>
      <text x="182" y="0">Mar</text>
      <text x="364" y="0">Jun</text>
      <text x="546" y="0">Sep</text>
      <text x="700" y="0">Dec</text>
    </g>

  </g>

  <!-- SECTION 4: TECH STACK (Y: 480-540) -->
  <g id="tech-section">
    <!-- Section title -->
    <text x="600" y="490" class="section-title" text-anchor="middle">🛠️ Tech Stack</text>

    <!-- Tech badges - Row 1 -->
    <g transform="translate(155, 515)">
      <g class="tech-badge" style="animation-delay: 0.1s">
        <rect x="0" y="0" width="100" height="35" rx="17.5" fill="#7b2ff7" opacity="0.9"/>
        <text x="50" y="23" text-anchor="middle" fill="white" class="badge-text">Solidity</text>
      </g>

      <g class="tech-badge" style="animation-delay: 0.15s" transform="translate(110, 0)">
        <rect x="0" y="0" width="100" height="35" rx="17.5" fill="#00d4ff" opacity="0.9"/>
        <text x="50" y="23" text-anchor="middle" fill="#0a0a1f" class="badge-text">Ethereum</text>
      </g>

      <g class="tech-badge" style="animation-delay: 0.2s" transform="translate(220, 0)">
        <rect x="0" y="0" width="100" height="35" rx="17.5" fill="#f107a3" opacity="0.9"/>
        <text x="50" y="23" text-anchor="middle" fill="white" class="badge-text">Web3.js</text>
      </g>

      <g class="tech-badge" style="animation-delay: 0.25s" transform="translate(330, 0)">
        <rect x="0" y="0" width="100" height="35" rx="17.5" fill="#7b2ff7" opacity="0.9"/>
        <text x="50" y="23" text-anchor="middle" fill="white" class="badge-text">Rust</text>
      </g>

      <g class="tech-badge" style="animation-delay: 0.3s" transform="translate(440, 0)">
        <rect x="0" y="0" width="100" height="35" rx="17.5" fill="#00d4ff" opacity="0.9"/>
        <text x="50" y="23" text-anchor="middle" fill="#0a0a1f" class="badge-text">Golang</text>
      </g>

      <g class="tech-badge" style="animation-delay: 0.35s" transform="translate(550, 0)">
        <rect x="0" y="0" width="120" height="35" rx="17.5" fill="#f107a3" opacity="0.9"/>
        <text x="60" y="23" text-anchor="middle" fill="white" class="badge-text">TypeScript</text>
      </g>

      <g class="tech-badge" style="animation-delay: 0.4s" transform="translate(680, 0)">
        <rect x="0" y="0" width="100" height="35" rx="17.5" fill="#7b2ff7" opacity="0.9"/>
        <text x="50" y="23" text-anchor="middle" fill="white" class="badge-text">Node.js</text>
      </g>

      <g class="tech-badge" style="animation-delay: 0.45s" transform="translate(790, 0)">
        <rect x="0" y="0" width="100" height="35" rx="17.5" fill="#00d4ff" opacity="0.9"/>
        <text x="50" y="23" text-anchor="middle" fill="#0a0a1f" class="badge-text">Docker</text>
      </g>
    </g>

    <!-- Tech badges - Row 2 (centered) -->
    <g transform="translate(470, 560)">
      <g class="tech-badge" style="animation-delay: 0.5s">
        <rect x="0" y="0" width="80" height="35" rx="17.5" fill="#f107a3" opacity="0.9"/>
        <text x="40" y="23" text-anchor="middle" fill="white" class="badge-text">IPFS</text>
      </g>

      <g class="tech-badge" style="animation-delay: 0.55s" transform="translate(90, 0)">
        <rect x="0" y="0" width="90" height="35" rx="17.5" fill="#7b2ff7" opacity="0.9"/>
        <text x="45" y="23" text-anchor="middle" fill="white" class="badge-text">DID/VC</text>
      </g>
    </g>
  </g>
</svg>
